:version 1.10
:name ASF
:units
  mass 1
  length 1
  angle deg
:documentation
  ASF file generated by Kaydara
:root
  axis xyz
  order  tx ty tz rx ry rz
  position 0 0 0
  orientation 0 0 0
:bonedata
  begin
    id 1
    name RightUpLegDummy
    direction -0.65628 -0.754516 0.00165102
    length 4.76918
    axis 0 0 0 xyz
  end
  begin
    id 2
    name RightUpLeg
    direction -0.145584 -0.923362 0.355256
    length 17.9961
    axis -24.7611 -13.1006 1.78531 xyz
    dof rx ry rz
  end
  begin
    id 3
    name RightLeg
    direction 0.263379 0.172355 -0.949171
    length 13.3386
    axis 89.6202 -21.1929 12.3855 xyz
    dof rx ry rz
  end
  begin
    id 4
    name RightFoot
    direction 0.224283 -0.968777 -0.105675
    length 5.86697
    axis 56.995 -39.6905 17.3365 xyz
    dof rx ry rz
  end
  begin
    id 5
    name RightToes
    direction -0.0806345 -0.9037 0.420506
    length 4.75197
    axis 146.825 -39.7828 17.6019 xyz
    dof rx ry rz
  end
  begin
    id 6
    name SpineDummy
    direction -3.39852e-014 1 9.33296e-014
    length 8.13779
    axis 0 0 0 xyz
  end
  begin
    id 7
    name Spine
    direction -0.156609 0.733703 0.661176
    length 7.14978
    axis 41.2365 5.68757 17.0844 xyz
    dof rx ry rz
  end
  begin
    id 8
    name Spine1
    direction 0 0 0
    length 0
    axis 42.8809 47.8308 -3.36039 xyz
    dof rx ry rz
  end
  begin
    id 9
    name HEadDummy
    direction 0.546431 0.701947 0.456819
    length 3.55512
    axis 42.8809 47.8308 -3.36039 xyz
  end
  begin
    id 10
    name HEad
    direction 0.23444 0.828559 0.508457
    length 7.35827
    axis 51.1864 49.2662 27.4903 xyz
    dof rx ry rz
  end
  begin
    id 11
    name LeftShoulder1Dummy
    direction 0.431183 0.475873 -0.766568
    length 2.49352
    axis 42.8809 47.8308 -3.36039 xyz
  end
  begin
    id 12
    name LeftShoulder1
    direction 0.268187 -0.383402 -0.883786
    length 4.48604
    axis -119.517 0.106469 35.1736 xyz
    dof rx ry rz
  end
  begin
    id 13
    name LeftArm
    direction 0.380567 -0.703221 -0.600541
    length 10.1142
    axis -5.41825 36.2925 7.8293 xyz
    dof rx ry rz
  end
  begin
    id 14
    name LeftForeArm
    direction 0.541071 -0.732356 -0.413396
    length 9.39839
    axis 4.65387 33.7604 7.81644 xyz
    dof rx ry rz
  end
  begin
    id 15
    name LeftHand
    direction 0.847511 -0.389379 -0.360707
    length 3.66142
    axis 7.65593 21.1436 -24.6758 xyz
    dof rx ry rz
  end
  begin
    id 16
    name RightShoulderDummy
    direction -0.692546 0.541855 0.476208
    length 2.49352
    axis 42.8809 47.8308 -3.36039 xyz
  end
  begin
    id 17
    name RightShoulder
    direction -0.870808 -0.316653 0.376065
    length 4.48602
    axis 141.571 51.133 -100.254 xyz
    dof rx ry rz
  end
  begin
    id 18
    name RightArm
    direction 0.366897 -0.87275 0.322015
    length 10.1142
    axis 92.3258 71.2036 138.917 xyz
    dof rx ry rz
  end
  begin
    id 19
    name RightForeArm
    direction 0.702487 -0.694568 0.155197
    length 9.39835
    axis 153.863 41.5092 -176.604 xyz
    dof rx ry rz
  end
  begin
    id 20
    name RightHand
    direction 0.79502 -0.601276 0.0800636
    length 3.66142
    axis 154.247 4.59222 142.9 xyz
    dof rx ry rz
  end
  begin
    id 21
    name LeftUpLegDummy
    direction 0.65628 -0.754516 0.00165102
    length 4.76919
    axis 0 0 0 xyz
  end
  begin
    id 22
    name LeftUpLeg
    direction -0.1277 -0.689368 0.713067
    length 17.9961
    axis -48.3385 -17.8675 0.791927 xyz
    dof rx ry rz
  end
  begin
    id 23
    name LeftLeg
    direction 0.109849 -0.991246 -0.0732378
    length 13.3386
    axis -2.05791 -7.30784 1.72042 xyz
    dof rx ry rz
  end
  begin
    id 24
    name LeftFoot
    direction 0.0448355 -0.272614 0.961078
    length 5.86697
    axis -18.7733 -7.89606 10.2113 xyz
    dof rx ry rz
  end
  begin
    id 25
    name LeftToes
    direction -0.18506 0.293668 0.937823
    length 4.75197
    axis 71.2267 -7.89606 10.2113 xyz
    dof rx ry rz
  end
:hierarchy
  begin
    root RightUpLegDummy SpineDummy LeftUpLegDummy
    RightUpLegDummy RightUpLeg
    RightUpLeg RightLeg
    RightLeg RightFoot
    RightFoot RightToes
    SpineDummy Spine
    Spine Spine1
    Spine1 HEadDummy LeftShoulder1Dummy RightShoulderDummy
    HEadDummy HEad
    LeftShoulder1Dummy LeftShoulder1
    LeftShoulder1 LeftArm
    LeftArm LeftForeArm
    LeftForeArm LeftHand
    RightShoulderDummy RightShoulder
    RightShoulder RightArm
    RightArm RightForeArm
    RightForeArm RightHand
    LeftUpLegDummy LeftUpLeg
    LeftUpLeg LeftLeg
    LeftLeg LeftFoot
    LeftFoot LeftToes
  end

:SAMPLES-PER-SECOND 30
:FULLY-SPECIFIED
:DEGREES
456
root  -27.9725 14.7034 -8.70602 -118.075 3.44672 36.0434
RightUpLeg  -12.1106 -11.8502 -41.4921
RightLeg  -73.9442 -15.1163 3.19651
RightFoot  10.914 22.3663 -47.4525
RightToes  -1.27222e-014 -6.36111e-015 6.36111e-015
Spine  -1.98748 -15.4671 -20.7816
Spine1  25.4968 -3.84375 14.4003
HEad  33.968 -38.5628 -12.3619
LeftShoulder1  6.36111e-015 -1.33558e-015 6.49777e-015
LeftArm  47.095 21.4577 -34.4279
LeftForeArm  -16.4645 -7.87582 -2.66286
LeftHand  -1.58837 -1.16129 -16.2576
RightShoulder  -4.77083e-015 -6.36111e-015 -3.18055e-015
RightArm  115.292 -40.1318 -93.9067
RightForeArm  3.47212 -7.36254 5.02961
RightHand  18.9411 -9.00232 -66.403
LeftUpLeg  -22.6538 15.1455 50.338
LeftLeg  -39.0761 6.50726 -9.1064
LeftFoot  -7.76034 0.9667 -4.12877
LeftToes  1.27222e-014 1.09105e-011 6.96064e-012
457
root  -26.3014 15.2626 -9.39576 -108.728 15.0122 47.9106
RightUpLeg  -12.1315 -14.2092 -37.807
RightLeg  -78.9854 -17.7036 11.8453
RightFoot  -1.59421 26.1907 -64.0283
RightToes  -1.27222e-014 -6.36111e-015 6.36111e-015
Spine  -2.5941 -15.1322 -21.1708
Spine1  25.7128 -2.2906 9.47203
HEad  35.7415 -39.6806 -14.9924
LeftShoulder1  6.36111e-015 -1.33558e-015 6.49777e-015
LeftArm  46.2977 17.5577 -25.2355
LeftForeArm  -32.8006 -24.3447 1.97396
LeftHand  -2.43324 -4.63122 -16.9222
RightShoulder  -4.77083e-015 -6.36111e-015 -3.18055e-015
RightArm  113.921 -39.2552 -96.09
RightForeArm  0.921675 -10.4962 2.26431
RightHand  22.2231 -8.91493 -74.9833
LeftUpLeg  -23.1387 16.2522 50.7849
LeftLeg  -41.3259 5.54146 -10.1936
LeftFoot  -5.83597 0.856031 -3.39395
LeftToes  1.27222e-014 1.09105e-011 6.96064e-012
458
root  -24.6587 16.1116 -10.6282 -94.768 23.3249 61.3595
RightUpLeg  -15.2296 -15.0903 -35.9416
RightLeg  -76.5773 -18.2884 11.4131
RightFoot  4.37816 21.5523 -49.0688
RightToes  -1.27222e-014 -6.36111e-015 6.36111e-015
Spine  -3.68091 -15.9251 -23.2518
Spine1  25.2415 -1.97399 7.69137
HEad  35.2191 -41.0936 -15.0048
LeftShoulder1  6.36111e-015 -1.33558e-015 6.49777e-015
LeftArm  42.3572 15.6361 -15.6898
LeftForeArm  -52.4223 -32.9101 8.32999
LeftHand  -2.15872 -4.39619 -11.0693
RightShoulder  -4.77083e-015 -6.36111e-015 -3.18055e-015
RightArm  110.484 -36.0316 -96.8726
RightForeArm  -2.55686 -14.5957 -0.737619
RightHand  24.8717 -9.40487 -79.8026
LeftUpLeg  -22.4203 16.4922 51.5261
LeftLeg  -42.4391 5.66543 -11.2946
LeftFoot  -3.90465 0.829422 -3.08248
LeftToes  1.27222e-014 1.09105e-011 6.96064e-012
459
root  -23.3804 17.3046 -12.6492 -78.1346 26.4551 76.3521
RightUpLeg  -17.3845 -13.7203 -36.2565
RightLeg  -70.6248 -13.0883 -1.78303
RightFoot  16.1841 2.5943 -11.4676
RightToes  -1.27222e-014 -6.36111e-015 6.36111e-015
Spine  -5.15546 -17.0646 -25.0519
Spine1  24.0336 -2.80256 9.22533
HEad  33.6407 -41.4278 -15.2136
LeftShoulder1  6.36111e-015 -1.33558e-015 6.49777e-015
LeftArm  35.0529 17.9933 -4.70397
LeftForeArm  -67.4807 -39.1454 18.8251
LeftHand  -1.26375 -2.06515 -7.27919
RightShoulder  -4.77083e-015 -6.36111e-015 -3.18055e-015
RightArm  104.43 -31.7943 -97.2445
RightForeArm  -4.78868 -15.1992 -3.73149
RightHand  25.1327 -9.95604 -79.0882
LeftUpLeg  -20.5 16.5316 52.2006
LeftLeg  -42.0831 5.81713 -11.7347
LeftFoot  -2.70532 0.752432 -2.68514
LeftToes  1.27222e-014 1.09105e-011 6.96064e-012
460
root  -22.7739 18.8442 -14.7623 -61.8952 23.6201 90.8282
RightUpLeg  -17.2348 -12.0311 -35.032
RightLeg  -72.3138 -10.8449 -6.55139
RightFoot  15.0907 -5.49306 2.08961
RightToes  -1.27222e-014 -6.36111e-015 6.36111e-015
Spine  -7.21412 -17.6219 -25.2416
Spine1  22.6079 -3.71754 11.5376
HEad  34.0545 -42.2654 -17.1727
LeftShoulder1  6.36111e-015 -1.33558e-015 6.49777e-015
LeftArm  27.0595 21.5581 3.01555
LeftForeArm  -85.2208 -42.7621 39.271
LeftHand  0.0799287 2.18882 -7.43605
RightShoulder  -4.77083e-015 -6.36111e-015 -3.18055e-015
RightArm  96.35 -26.1874 -100.858
RightForeArm  -5.00684 -10.4038 -6.37079
RightHand  25.047 -9.9919 -78.8237
LeftUpLeg  -17.0919 16.4951 53.7536
LeftLeg  -41.8104 5.44046 -11.7905
LeftFoot  -1.73706 0.671662 -2.32056
LeftToes  1.27222e-014 1.09105e-011 6.96064e-012
461
root  -22.8198 20.6177 -16.8941 -47.9405 16.3415 102.78
RightUpLeg  -18.1693 -9.60934 -32.8718
RightLeg  -74.8724 -13.0067 -1.39995
RightFoot  15.4501 -1.60762 -4.34259
RightToes  -1.27222e-014 -6.36111e-015 6.36111e-015
Spine  -9.1205 -16.5849 -22.8713
Spine1  21.0074 -3.56371 12.8058
HEad  35.5237 -46.809 -18.5511
LeftShoulder1  6.36111e-015 -1.33558e-015 6.49777e-015
LeftArm  16.2478 21.7123 3.22699
LeftForeArm  -104.283 -38.5144 61.4014
LeftHand  1.30665 5.22849 -5.43002
RightShoulder  -4.77083e-015 -6.36111e-015 -3.18055e-015
RightArm  87.6935 -19.207 -108.075
RightForeArm  -6.52235 -5.36804 -7.56995
RightHand  25.279 -10.7082 -77.705
LeftUpLeg  -12.2385 15.5357 55.1944
LeftLeg  -41.825 5.79638 -11.9923
LeftFoot  -1.07688 0.818608 -2.79334
LeftToes  1.27222e-014 1.09105e-011 6.96064e-012
462
root  -23.2001 22.6422 -18.6707 -36.6684 6.66327 111.572
RightUpLeg  -20.5004 -7.19598 -32.9471
RightLeg  -76.5215 -15.3033 4.62768
RightFoot  14.5489 0.841409 -8.07093
RightToes  -1.27222e-014 -6.36111e-015 6.36111e-015
Spine  -9.73918 -15.5484 -20.5991
Spine1  18.6054 -3.75719 12.0682
HEad  35.8199 -54.3884 -18.2331
LeftShoulder1  6.36111e-015 -1.33558e-015 6.49777e-015
LeftArm  4.75815 12.5986 -5.57042
LeftForeArm  -111.262 -31.6411 76.6812
LeftHand  2.72312 7.81716 -1.97275
RightShoulder  -4.77083e-015 -6.36111e-015 -3.18055e-015
RightArm  80.5061 -13.4553 -112.28
RightForeArm  -11.7221 -5.55688 -8.98236
RightHand  24.4277 -12.0605 -72.9209
LeftUpLeg  -7.36013 14.2276 55.4757
LeftLeg  -42.1701 6.20781 -12.6184
LeftFoot  1.21356 1.12646 -3.6249
LeftToes  1.27222e-014 1.09105e-011 6.96064e-012
463
root  -23.9971 24.8928 -20.1272 -27.6229 -5.15845 116.429
RightUpLeg  -21.7065 -5.49187 -34.4672
RightLeg  -77.535 -14.3368 2.6626
RightFoot  11.6262 0.649805 -6.72724
RightToes  -1.27222e-014 -6.36111e-015 6.36111e-015
Spine  -9.53265 -15.6797 -19.3714
Spine1  14.3144 -5.63873 12.2995
HEad  34.9089 -61.3829 -17.4222
LeftShoulder1  6.36111e-015 -1.33558e-015 6.49777e-015
LeftArm  2.22035 -6.38031 -17.9968
LeftForeArm  -105.053 -32.2839 90.1243
LeftHand  5.46531 13.8219 0.435886
RightShoulder  -4.77083e-015 -6.36111e-015 -3.18055e-015
RightArm  71.5509 -10.6805 -112.408
RightForeArm  -17.004 -4.88669 -10.7048
RightHand  23.3393 -12.559 -69.4227
LeftUpLeg  -3.57045 13.4262 55.6304
LeftLeg  -42.4444 4.92373 -12.4042
LeftFoot  5.87102 1.62751 -4.63184
LeftToes  1.27222e-014 1.09105e-011 6.96064e-012
464
root  -25.2695 27.1512 -21.0618 -19.5232 -18.7565 116.755
RightUpLeg  -21.5263 -3.23897 -34.6621
RightLeg  -79.9279 -13.9969 2.70222
RightFoot  10.0831 1.70727 -8.09708
RightToes  -1.27222e-014 -6.36111e-015 6.36111e-015
Spine  -8.88367 -17.2507 -19.7105
Spine1  7.51886 -9.21843 18.1289
HEad  31.1696 -64.0046 -15.9987
LeftShoulder1  6.36111e-015 -1.33558e-015 6.49777e-015
LeftArm  3.81215 -19.3937 -28.2033
LeftForeArm  -91.9566 -45.8136 84.9912
LeftHand  7.15676 16.2847 3.35219
RightShoulder  -4.77083e-015 -6.36111e-015 -3.18055e-015
RightArm  56.6453 -13.2262 -107.332
RightForeArm  -20.3883 -1.0901 -13.5258
RightHand  23.1801 -12.3983 -69.3936
LeftUpLeg  -0.470203 12.9644 57.3123
LeftLeg  -42.8299 2.43768 -10.9177
LeftFoot  12.7231 2.76904 -6.64682
LeftToes  1.27222e-014 1.09105e-011 6.96064e-012
465
root  -26.7339 29.3347 -21.2565 -10.0546 -32.61 112.473
RightUpLeg  -21.2624 -0.496058 -34.4262
RightLeg  -82.6245 -14.736 6.44871
RightFoot  10.3764 2.72766 -10.0782
RightToes  -1.27222e-014 -6.36111e-015 6.36111e-015
Spine  -7.27923 -19.8435 -21.7266
Spine1  -0.940787 -12.7573 30.2088
HEad  22.7282 -59.7025 -13.0074
LeftShoulder1  6.36111e-015 -1.33558e-015 6.49777e-015
LeftArm  -3.19467 -22.2468 -31.2649
LeftForeArm  -57.2864 -52.9537 44.3415
LeftHand  5.13 11.6458 2.98939
RightShoulder  -4.77083e-015 -6.36111e-015 -3.18055e-015
RightArm  35.0439 -19.0382 -93.6844
RightForeArm  -21.1814 2.43962 -15.7844
RightHand  22.6544 -12.3025 -68.3715
LeftUpLeg  2.13312 12.5719 60.1135
LeftLeg  -43.4501 1.48967 -10.5252
LeftFoot  20.4328 4.14027 -8.35305
LeftToes  1.27222e-014 1.09105e-011 6.96064e-012
466
root  -27.9876 31.398 -20.6578 3.71826 -45.4213 103.157
RightUpLeg  -22.2862 0.697452 -35.6391
RightLeg  -84.6736 -14.5963 7.5306
RightFoot  8.82846 3.81132 -11.673
RightToes  -1.27222e-014 -6.36111e-015 6.36111e-015
Spine  -5.97506 -22.0835 -22.7776
Spine1  -8.49652 -14.7722 41.6158
HEad  13.5591 -50.7448 -10.0808
LeftShoulder1  6.36111e-015 -1.33558e-015 6.49777e-015
LeftArm  -15.727 -23.874 -27.0466
LeftForeArm  -27.0938 -39.7445 11.6157
LeftHand  3.46794 9.04139 -0.276579
RightShoulder  -4.77083e-015 -6.36111e-015 -3.18055e-015
RightArm  9.48527 -22.5427 -73.3788
RightForeArm  -16.9938 4.06232 -15.2075
RightHand  21.6581 -12.4718 -65.633
LeftUpLeg  4.40004 12.0144 62.7529
LeftLeg  -44.6172 3.69139 -13.1784
LeftFoot  26.0021 4.80216 -8.64238
LeftToes  1.27222e-014 1.09105e-011 6.96064e-012
467
root  -28.814 33.1973 -19.3839 25.3007 -56.2737 86.1988
RightUpLeg  -25.4384 0.345628 -38.2551
RightLeg  -87.1519 -14.5035 9.54075
RightFoot  6.33325 5.68528 -14.7752
RightToes  -1.27222e-014 -6.36111e-015 6.36111e-015
Spine  -6.20051 -22.6277 -20.1878
Spine1  -15.0415 -15.7736 46.2972
HEad  6.66925 -41.5911 -7.01258
LeftShoulder1  6.36111e-015 -1.33558e-015 6.49777e-015
LeftArm  -28.2891 -26.0802 -18.3616
LeftForeArm  -17.7106 -23.3651 1.24548
LeftHand  2.39401 6.42973 -0.736905
RightShoulder  -4.77083e-015 -6.36111e-015 -3.18055e-015
RightArm  -11.9381 -19.6566 -54.9451
RightForeArm  -10.3804 2.73351 -11.9423
RightHand  21.4753 -12.5733 -64.9747
LeftUpLeg  7.06215 10.9073 64.1445
LeftLeg  -45.7904 6.54241 -16.3115
LeftFoot  24.5194 5.44526 -10.066
LeftToes  1.27222e-014 1.09105e-011 6.96064e-012
468
root  -28.9908 34.522 -17.5383 58.0786 -62.217 57.5595
RightUpLeg  -30.189 -0.754198 -42.3343
RightLeg  -88.2323 -15.4811 14.6331
RightFoot  6.87049 6.21639 -15.9677
RightToes  -1.27222e-014 -6.36111e-015 6.36111e-015
Spine  -6.35625 -20.9673 -15.2811
Spine1  -21.9521 -16.032 45.2156
HEad  2.12588 -34.1317 -3.95351
LeftShoulder1  6.36111e-015 -1.33558e-015 6.49777e-015
LeftArm  -42.4172 -27.7116 -9.04719
LeftForeArm  -15.4923 -12.2179 -1.7877
LeftHand  1.90166 4.55527 0.966206
RightShoulder  -4.77083e-015 -6.36111e-015 -3.18055e-015
RightArm  -24.0291 -14.4446 -43.1547
RightForeArm  -7.42858 0.0665367 -9.66545
RightHand  22.4022 -13.0459 -66.2312
LeftUpLeg  10.8866 9.58292 63.5481
LeftLeg  -45.9974 5.24631 -15.418
LeftFoot  16.1689 6.68008 -14.6682
LeftToes  1.27222e-014 1.09105e-011 6.96064e-012
